<svg data-v-70b83f88="" version="1.0" xmlns="http://www.w3.org/2000/svg" xmlns:xlink="http://www.w3.org/1999/xlink"
  width="100%" height="100%" viewBox="0 0 340.000000 250.000000" preserveAspectRatio="xMidYMid meet"
  color-interpolation-filters="sRGB" style="margin: auto;">
  <rect data-v-70b83f88="" x="0" y="0" width="100%" height="100%" fill="#333333" fill-opacity="0" class="background">
  </rect>
  <g data-v-70b83f88="" fill="#333" class="icon-text-wrapper icon-svg-group iconsvg"
    transform="translate(36.00000000019702,43.411582946777344)">
    <g class="iconsvg-imagesvg" transform="translate(0,0)">
      <g>
        <rect fill="#333" fill-opacity="0" stroke-width="2" x="0" y="0" width="268.00000000000017"
          height="163.17683376055635" class="image-rect"></rect> <svg filter="url(#colors263215537)" x="0" y="0"
          width="268.00000000000017" height="163.17683376055635" filtersec="colorsf8940297066"
          class="image-svg-svg primary" style="overflow: visible;"><svg xmlns="http://www.w3.org/2000/svg"
            viewBox="0.0009918212890625 -0.0010924339294433594 316.7093505859375 192.8344268798828">
            <title>Nunts</title>
            <path
              d="M62.71 192.78c-12.05 0-24.09.12-36.13 0-21.94-.27-33.21-19.52-22.46-38.53q39.74-70.3 79.7-140.46c10.46-18.32 34.41-18.26 44.89.35 14.6 25.91 28.55 52.19 42.8 78.3q17.3 31.71 34.68 63.37c1 1.8 1.77 4.36 4.11 4.49 3 .16 3.36-2.93 4.46-4.86q33.59-58.71 67-117.5c1.66-2.93 5.37-6.06 3.26-9.41-1.82-2.88-6.15-1.28-9.36-1.3-17-.12-34 .18-51-.18-6.2-.13-10 1.94-13.1 7.33-8.88 15.32-18.23 30.37-27.49 45.46-3.57 5.82-3.67 5.15-7.86-.18-11-14-11.07-26.92.71-40.75 5.88-6.92 9.82-15.54 14.37-23.54C197 5.4 205.63.38 216.84.28 241.4.06 266-.26 290.52.36c22.43.57 32.81 20 21.71 39.47q-39.35 68.88-78.63 137.79c-5.39 9.5-13 15.14-23.89 14.86s-18-6-23.26-15.79c-25.14-46.78-50.75-93.32-76.2-139.93-3.15-5.78-4.77-5.92-7.9-.4q-35.13 61.9-70.22 123.83c-2.63 4.63-1.3 5.72 3.38 5.71 19.6-.08 39.2-.12 58.8 0 4.74 0 7.17-2.52 9.38-6.21q13.68-22.78 27.66-45.36c1.2-2 2-5 4.52-5.06 3.11-.11 3.36 3.46 4.94 5.38 10.64 13 10.08 25.17-.74 38.22-6.56 7.91-11.12 17.51-16.42 26.44s-13.19 13.29-23.39 13.42c-12.51.16-25.03.04-37.55.05z"
              fill="#000000"></path>
          </svg></svg>
        <defs>
          <filter id="colors263215537">
            <feColorMatrix type="matrix" values="0 0 0 0 0.23828125  0 0 0 0 0.66796875  0 0 0 0 0.95703125  0 0 0 1 0"
              class="icon-fecolormatrix"></feColorMatrix>
          </filter>
          <filter id="colorsf8940297066">
            <feColorMatrix type="matrix" values="0 0 0 0 0.99609375  0 0 0 0 0.99609375  0 0 0 0 0.99609375  0 0 0 1 0"
              class="icon-fecolormatrix"></feColorMatrix>
          </filter>
          <filter id="colorsb4290096236">
            <feColorMatrix type="matrix" values="0 0 0 0 0  0 0 0 0 0  0 0 0 0 0  0 0 0 1 0" class="icon-fecolormatrix">
            </feColorMatrix>
          </filter>
        </defs>
      </g>
    </g>
    <g transform="translate(134,172.1768341064453)">
      <g data-gra="path-name" fill-rule="" class="tp-name iconsvg-namesvg">
        <g transform="scale(1)">
          <g>
            <path d="" transform="translate(0, 0)"></path>
          </g>
          <g data-gra="path-name-1" fill="#333" transform="translate(3,0)">
            <g transform="scale(1)">
              <path d="" transform="translate(0, 0)"></path>
            </g>
          </g>
        </g>
      </g>
    </g>
  </g>
</svg>
